<svg width="29" height="26" viewBox="0 0 29 26" fill="none" xmlns="http://www.w3.org/2000/svg">
<path d="M10.2108 21.0648C9.15513 21.3641 8.37958 22.334 8.37958 23.4842C8.37958 24.8725 9.50877 26.0017 10.8971 26.0017C12.2854 26.0017 13.4145 24.8725 13.4145 23.4842C13.4145 22.91 13.2202 22.383 12.8963 21.9594H20.9915C20.6676 22.383 20.4733 22.91 20.4733 23.4842C20.4733 24.8725 21.6025 26.0017 22.9908 26.0017C24.3791 26.0017 25.5083 24.8725 25.5083 23.4842C25.5083 22.0959 24.3983 20.9877 23.0258 20.9685C23.0205 20.9685 23.0153 20.9685 23.0083 20.9685H11.2157L10.2563 17.5739H25.1669C25.384 17.5739 25.5748 17.4339 25.6396 17.2273L28.5527 7.97316C28.6 7.8226 28.5737 7.65804 28.4792 7.53024C28.3864 7.40244 28.2376 7.32716 28.0783 7.32716H7.36068L5.66252 1.31181C5.60124 1.09823 5.40692 0.951172 5.18458 0.951172H0.93392C0.660813 0.951172 0.438477 1.17351 0.438477 1.44662C0.438477 1.71972 0.660813 1.94206 0.93392 1.94206H4.80993L10.2125 21.063L10.2108 21.0648ZM12.4219 23.4842C12.4219 24.3245 11.7374 25.0091 10.8971 25.0091C10.0567 25.0091 9.37221 24.3245 9.37221 23.4842C9.37221 22.6439 10.0567 21.9594 10.8971 21.9594C11.7374 21.9594 12.4219 22.6439 12.4219 23.4842ZM24.5139 23.4842C24.5139 24.3245 23.8294 25.0091 22.989 25.0091C22.1487 25.0091 21.4642 24.3245 21.4642 23.4842C21.4642 22.6439 22.1487 21.9594 22.989 21.9594C23.8294 21.9594 24.5139 22.6439 24.5139 23.4842ZM8.92929 12.8751H12.2713L12.8578 16.5795H9.9762L8.92929 12.8751ZM18.0293 16.5795V12.8751H21.585L20.9985 16.5795H18.0293ZM18.0293 11.8824V8.31805H22.3063L21.7425 11.8824H18.0293ZM17.0367 11.8824H13.1187L12.555 8.31805H17.0367V11.8824ZM17.0367 12.8751V16.5795H13.8627L13.2762 12.8751H17.0367ZM24.8027 16.5795H22.0034L22.5899 12.8751H25.9687L24.8027 16.5795ZM26.2821 11.8824H22.7474L23.3112 8.31805H27.4043L26.2821 11.8824ZM11.5483 8.31805L12.112 11.8824H8.64743L7.64079 8.31805H11.5483Z" fill="white"/>
</svg>
