<svg width="16" height="15" viewBox="0 0 16 15" fill="none" xmlns="http://www.w3.org/2000/svg">
<path d="M8 14.5H1C0.448 14.5 0 14.052 0 13.5C0 12.948 0.448 12.5 1 12.5H8C8.552 12.5 9 12.948 9 13.5C9 14.052 8.552 14.5 8 14.5Z" fill="#2B5597"/>
<path d="M15 6.5H1C0.448 6.5 0 6.052 0 5.5C0 4.948 0.448 4.5 1 4.5H15C15.552 4.5 16 4.948 16 5.5C16 6.052 15.552 6.5 15 6.5Z" fill="#2B5597"/>
<path d="M15 10.5H1C0.448 10.5 0 10.052 0 9.5C0 8.948 0.448 8.5 1 8.5H15C15.552 8.5 16 8.948 16 9.5C16 10.052 15.552 10.5 15 10.5Z" fill="#2B5597"/>
<path d="M15 2.5H1C0.448 2.5 0 2.052 0 1.5C0 0.948 0.448 0.5 1 0.5H15C15.552 0.5 16 0.948 16 1.5C16 2.052 15.552 2.5 15 2.5Z" fill="#2B5597"/>
</svg>
