<svg width="18" height="18" viewBox="0 0 18 18" fill="none" xmlns="http://www.w3.org/2000/svg">
<path d="M12.904 11H12.1281L11.8531 10.73C12.8489 9.55402 13.3962 8.0527 13.3952 6.5C13.3952 5.21442 13.0207 3.95772 12.3192 2.8888C11.6177 1.81988 10.6206 0.986756 9.45399 0.494786C8.2874 0.00281635 7.00373 -0.125905 5.76529 0.124899C4.52684 0.375703 3.38926 0.994767 2.4964 1.90381C1.60353 2.81285 0.995482 3.97104 0.749141 5.23192C0.5028 6.49279 0.629231 7.79973 1.11245 8.98744C1.59566 10.1752 2.41396 11.1903 3.46386 11.9046C4.51376 12.6188 5.74811 13 7.01081 13C8.59216 13 10.0458 12.41 11.1655 11.43L11.4307 11.71V12.5L16.3418 17.49L17.8053 16L12.904 11ZM7.01081 11C4.56511 11 2.59088 8.99 2.59088 6.5C2.59088 4.01 4.56511 2 7.01081 2C9.4565 2 11.4307 4.01 11.4307 6.5C11.4307 8.99 9.4565 11 7.01081 11Z" fill="white"/>
</svg>
