<svg width="91" height="43" viewBox="0 0 91 43" fill="none" xmlns="http://www.w3.org/2000/svg">
<g clip-path="url(#clip0_176_3157)">
<path fill-rule="evenodd" clip-rule="evenodd" d="M62.5564 17.5655H54.5315C54.2985 17.6238 54.4187 17.5947 54.2621 18.2316C53.8689 19.8803 52.8312 21.2451 51.1745 21.9257C49.263 22.7045 46.5213 22.6936 44.668 21.8711C40.5682 20.0477 39.6616 14.8177 41.0998 11.251C41.8135 9.4749 43.1606 8.09917 44.9375 7.39674C46.8162 6.65064 49.6671 6.72343 51.4258 7.5678C53.0533 8.35393 53.9235 9.72967 54.2621 11.4402C54.3568 11.9097 54.3204 11.8442 54.8228 11.8406C57.3606 11.8115 59.9822 11.917 62.5054 11.8297C62.6255 10.1082 61.6607 7.66606 60.9325 6.51234C60.0331 5.08929 58.8243 3.90281 57.4152 3.01113C54.0691 0.889288 50.5774 0.266931 45.8514 0.572651C41.4821 0.852893 38.1834 2.42516 35.9114 4.62343C30.9305 9.45307 30.4025 19.52 35.9296 24.7136L36.8362 25.5397C39.2247 27.5633 42.7055 28.5423 45.8768 28.7934C50.1623 29.1319 54.3932 28.4113 57.3715 26.4532C59.7892 24.8628 62.3233 21.8565 62.5564 17.5546V17.5655ZM0 9.37664L10.3041 9.38392L10.315 27.8363L19.5195 27.8435L19.5377 9.39847L29.8345 9.38028V1.94839L0.0291282 1.92291L0 9.37664ZM67.4936 27.8399L90.9417 27.8581C91.0255 27.2758 91.0182 21.0449 90.9163 20.7283L76.3995 20.7174V1.93019L67.5045 1.90471C67.3734 2.58894 67.4644 22.3115 67.4644 24.6044C67.4644 25.4451 67.3734 27.1011 67.5009 27.8435L67.4936 27.8399Z" fill="#ED3237"/>
<path fill-rule="evenodd" clip-rule="evenodd" d="M67.541 27.7672H90.8581L90.8836 20.834C89.9078 20.8267 76.9384 20.925 76.3996 20.7794C76.3231 20.601 76.3268 20.6775 76.3268 20.4518V1.98856H67.541L67.5337 27.76L67.541 27.7672Z" fill="#ED3237"/>
<path d="M4.16528 42.3508V35.8579H1.84595V34.5367H8.05024V35.8579H5.74548V42.3508H4.16528ZM10.5334 34.5367V37.4302C11.0213 36.8515 11.6002 36.5676 12.2738 36.5676C12.6197 36.5676 12.9365 36.6331 13.2169 36.7568C13.4972 36.8879 13.7047 37.048 13.8467 37.2445C13.9887 37.4411 14.0834 37.6631 14.138 37.9069C14.1926 38.1508 14.2145 38.522 14.2145 39.0315V42.3508H12.718V39.3664C12.718 38.7695 12.6889 38.3946 12.6343 38.2345C12.576 38.0743 12.4741 37.947 12.3321 37.8523C12.1901 37.7577 12.0044 37.7104 11.7823 37.7104C11.5311 37.7104 11.3053 37.7686 11.1087 37.896C10.9121 38.0161 10.7701 38.1981 10.6754 38.4456C10.5808 38.6931 10.5371 39.0461 10.5371 39.5229V42.3581H9.0406V34.5404H10.5371L10.5334 34.5367ZM19.0024 40.5638L20.4989 40.8149C20.3096 41.3645 20.0037 41.7794 19.5923 42.0669C19.1736 42.3544 18.6565 42.4964 18.0376 42.4964C17.0545 42.4964 16.3226 42.1761 15.8493 41.5319C15.4743 41.0151 15.2886 40.3636 15.2886 39.5775C15.2886 38.6348 15.5325 37.9033 16.0204 37.3719C16.5083 36.8406 17.1273 36.5749 17.881 36.5749C18.7221 36.5749 19.3811 36.8551 19.8726 37.4083C20.3642 37.9615 20.5936 38.8204 20.5681 39.9705H16.8287C16.8397 40.4109 16.9598 40.7639 17.1928 41.0078C17.4186 41.2589 17.7099 41.3754 18.0521 41.3754C18.2851 41.3754 18.4818 41.3099 18.642 41.1861C18.8022 41.0624 18.9223 40.8513 19.0061 40.5711V40.5638H19.0024ZM19.0935 39.0425C19.0825 38.6094 18.9733 38.2745 18.7585 38.0525C18.5437 37.8269 18.2888 37.714 17.9829 37.714C17.6553 37.714 17.3858 37.8341 17.171 38.0707C16.9562 38.3073 16.8542 38.6348 16.8542 39.0425H19.0935ZM29.8417 39.4683L31.3673 39.9378C31.1343 40.7967 30.7411 41.4373 30.1949 41.8558C29.6451 42.2743 28.957 42.4818 28.1195 42.4818C27.0819 42.4818 26.2262 42.1251 25.5563 41.4154C24.89 40.7057 24.555 39.734 24.555 38.5075C24.555 37.2081 24.89 36.1964 25.5635 35.4757C26.2371 34.7551 27.1183 34.3984 28.2142 34.3984C29.1718 34.3984 29.9473 34.686 30.5445 35.2501C30.9013 35.5849 31.1634 36.0653 31.3418 36.6913L29.7798 37.0589C29.6852 36.6549 29.4922 36.331 29.2009 36.1017C28.9096 35.8724 28.5528 35.7487 28.1268 35.7487C27.5479 35.7487 27.0782 35.9562 26.7141 36.3747C26.35 36.7932 26.1716 37.4629 26.1716 38.3946C26.1716 39.3773 26.35 40.087 26.7032 40.5019C27.06 40.9241 27.5188 41.1315 28.0904 41.1315C28.5128 41.1315 28.8696 41.0005 29.1754 40.7312C29.4776 40.4619 29.6925 40.047 29.8235 39.4756L29.8417 39.4683ZM34.1418 42.3508H32.6453V36.6841H34.0326V37.4884C34.2692 37.1062 34.484 36.8587 34.677 36.7423C34.8664 36.6222 35.0812 36.564 35.3251 36.564C35.6637 36.564 35.9987 36.6586 36.3155 36.8442L35.8494 38.1471C35.5982 37.987 35.3615 37.9033 35.1467 37.9033C34.9392 37.9033 34.7608 37.9615 34.6115 38.0743C34.4695 38.1945 34.3493 38.3946 34.2656 38.7003C34.1818 39.0024 34.1418 39.6357 34.1418 40.5929V42.3399V42.3508ZM40.2405 40.5638L41.737 40.8149C41.5476 41.3645 41.2418 41.7794 40.8303 42.0669C40.4116 42.3544 39.8946 42.4964 39.2756 42.4964C38.2926 42.4964 37.5607 42.1761 37.0874 41.5319C36.7123 41.0151 36.5267 40.3636 36.5267 39.5775C36.5267 38.6348 36.7706 37.9033 37.2585 37.3719C37.7464 36.8406 38.3654 36.5749 39.1191 36.5749C39.9601 36.5749 40.6192 36.8551 41.1107 37.4083C41.5986 37.9615 41.8316 38.8204 41.8061 39.9705H38.0632C38.0741 40.4109 38.1942 40.7639 38.4273 41.0078C38.653 41.2589 38.9443 41.3754 39.2866 41.3754C39.5196 41.3754 39.7162 41.3099 39.8764 41.1861C40.0366 41.0624 40.1568 40.8513 40.2405 40.5711V40.5638ZM40.3279 39.0425C40.317 38.6094 40.2077 38.2745 39.9929 38.0525C39.7781 37.8269 39.5232 37.714 39.2174 37.714C38.8897 37.714 38.6202 37.8341 38.4054 38.0707C38.1906 38.3073 38.0887 38.6348 38.0887 39.0425H40.3279ZM44.1473 38.431L42.7965 38.1945C42.9531 37.6412 43.2152 37.23 43.5902 36.9679C43.9653 36.6986 44.5187 36.5676 45.2542 36.5676C45.9205 36.5676 46.4229 36.644 46.7506 36.8042C47.0783 36.9643 47.3041 37.1608 47.4424 37.4047C47.5735 37.6485 47.6463 38.0962 47.6463 38.744L47.6208 40.491C47.6208 40.986 47.6463 41.3536 47.6937 41.5938C47.741 41.8303 47.832 42.0815 47.9631 42.3508H46.4776C46.4412 42.2562 46.3865 42.1069 46.3356 41.9177C46.3101 41.8267 46.2955 41.7685 46.2809 41.7466C46.0261 41.9977 45.7494 42.187 45.4654 42.3107C45.1741 42.4345 44.8646 42.5 44.5369 42.5C43.958 42.5 43.4992 42.3399 43.1606 42.0232C42.8256 41.7066 42.6618 41.3099 42.6618 40.8258C42.6618 40.5092 42.7382 40.2253 42.8875 39.9742C43.0441 39.723 43.2516 39.5338 43.532 39.4028C43.8051 39.2717 44.2056 39.1516 44.7226 39.0497C45.418 38.9187 45.9096 38.795 46.1754 38.6821V38.5329C46.1754 38.2418 46.1025 38.0343 45.9605 37.9069C45.8185 37.7795 45.5491 37.7213 45.1486 37.7213C44.8792 37.7213 44.6716 37.7759 44.5223 37.8815C44.3731 37.987 44.2529 38.1726 44.1582 38.4419L44.1473 38.431ZM46.1572 39.6393C45.9678 39.7049 45.662 39.7813 45.2469 39.865C44.8282 39.956 44.5624 40.0433 44.4313 40.127C44.2347 40.269 44.14 40.4437 44.14 40.6584C44.14 40.8659 44.2165 41.0515 44.3731 41.2007C44.5296 41.3572 44.7299 41.4263 44.9702 41.4263C45.2396 41.4263 45.5018 41.3354 45.7457 41.157C45.9241 41.0187 46.0443 40.8586 46.1025 40.662C46.1389 40.5383 46.1608 40.2945 46.1608 39.9341V39.6393H46.1572ZM51.6915 36.6841V37.8742H50.6684V40.1671C50.6684 40.6329 50.6793 40.9059 50.6975 40.9787C50.7157 41.0551 50.763 41.1206 50.8359 41.1679C50.9087 41.2153 50.9924 41.2444 51.0871 41.2444C51.2291 41.2444 51.4257 41.1971 51.6879 41.1024L51.8117 42.2634C51.4658 42.4126 51.0725 42.4891 50.632 42.4891C50.3625 42.4891 50.1186 42.4418 49.9038 42.3508C49.6889 42.2598 49.5287 42.1433 49.4268 41.9977C49.3248 41.8558 49.2557 41.6593 49.2193 41.4081C49.1901 41.2371 49.1719 40.8768 49.1719 40.349V37.8778H48.4874V36.6877H49.1719V35.5631L50.6684 34.6823V36.6913H51.6915V36.6841ZM52.7401 35.9234V34.5367H54.2366V35.9234H52.7401ZM52.7401 42.3508V36.6841H54.2366V42.3471H52.7401V42.3508ZM57.3278 42.3508L55.0449 36.6877H56.6178L57.6846 39.5775L57.9941 40.5419C58.0779 40.2981 58.1325 40.138 58.1507 40.0542C58.2053 39.8941 58.2526 39.734 58.3109 39.5702L59.3886 36.6804H60.9251L58.6713 42.3435H57.3205L57.3278 42.3508ZM65.1159 40.5638L66.6124 40.8149C66.4231 41.3645 66.1172 41.7794 65.7058 42.0669C65.2871 42.3544 64.77 42.4964 64.1511 42.4964C63.168 42.4964 62.4362 42.1761 61.9628 41.5319C61.5878 41.0151 61.4021 40.3636 61.4021 39.5775C61.4021 38.6348 61.6461 37.9033 62.1339 37.3719C62.6218 36.8406 63.2408 36.5749 63.9945 36.5749C64.8356 36.5749 65.4946 36.8551 65.9861 37.4083C66.474 37.9615 66.7071 38.8204 66.6816 39.9705H62.9386C62.9495 40.4109 63.0697 40.7639 63.3027 41.0078C63.5285 41.2589 63.8197 41.3754 64.162 41.3754C64.395 41.3754 64.5916 41.3099 64.7518 41.1861C64.912 41.0624 65.0322 40.8513 65.1159 40.5711V40.5638ZM65.207 39.0425C65.196 38.6094 65.0868 38.2745 64.872 38.0525C64.6572 37.8269 64.4023 37.714 64.0965 37.714C63.7688 37.714 63.4993 37.8341 63.2845 38.0707C63.0697 38.3073 62.9677 38.6348 62.9677 39.0425H65.207ZM70.9998 42.3508V34.6023H72.5837V41.0296H76.505V42.3508H70.9998ZM77.6119 35.9234V34.5367H79.1084V35.9234H77.6119ZM77.6119 42.3508V36.6841H79.1084V42.3471H77.6119V42.3508ZM79.9895 36.6841H80.816V36.2546C80.816 35.7778 80.8706 35.4211 80.9726 35.1882C81.0745 34.9516 81.2639 34.7588 81.5333 34.6168C81.8064 34.4676 82.1523 34.3948 82.571 34.3948C83.0006 34.3948 83.4157 34.4603 83.8271 34.5841L83.6378 35.625C83.3939 35.5704 83.1608 35.5412 82.9351 35.5412C82.713 35.5412 82.5528 35.5958 82.4581 35.6977C82.3635 35.7997 82.3161 35.9962 82.3161 36.2873V36.6913H83.4412V37.8705H82.3161V42.3544H80.8197V37.8778H79.9931V36.6986V36.6841H79.9895ZM87.5592 40.5638L89.0556 40.8149C88.8663 41.3645 88.5605 41.7794 88.149 42.0669C87.7303 42.3544 87.2133 42.4964 86.5943 42.4964C85.6112 42.4964 84.8794 42.1761 84.4061 41.5319C84.031 41.0151 83.8453 40.3636 83.8453 39.5775C83.8453 38.6348 84.0893 37.9033 84.5772 37.3719C85.0651 36.8406 85.6841 36.5749 86.4378 36.5749C87.2788 36.5749 87.9379 36.8551 88.4294 37.4083C88.9173 37.9615 89.1503 38.8204 89.1248 39.9705H85.3819C85.3928 40.4109 85.5129 40.7639 85.746 41.0078C85.9717 41.2589 86.263 41.3754 86.6052 41.3754C86.8383 41.3754 87.0349 41.3099 87.1951 41.1861C87.3553 41.0624 87.4754 40.8513 87.5592 40.5711V40.5638ZM87.6466 39.0425C87.6356 38.6094 87.5264 38.2745 87.3116 38.0525C87.0968 37.8269 86.8419 37.714 86.5361 37.714C86.2084 37.714 85.9389 37.8341 85.7241 38.0707C85.5093 38.3073 85.4073 38.6348 85.4073 39.0425H87.6466Z" fill="#201E1E"/>
</g>
<defs>
<clipPath id="clip0_176_3157">
<rect width="91" height="42" fill="white" transform="translate(0 0.5)"/>
</clipPath>
</defs>
</svg>
