<svg width="20" height="17" viewBox="0 0 20 17" fill="none" xmlns="http://www.w3.org/2000/svg">
<g clip-path="url(#clip0_1169_9336)">
<path d="M12.4492 11.9551H12.1191" stroke="#2B5597" stroke-width="0.71286" stroke-linecap="round" stroke-linejoin="round"/>
<path d="M14.3149 11.9551H13.9849" stroke="#2B5597" stroke-width="0.71286" stroke-linecap="round" stroke-linejoin="round"/>
<path d="M2.85352 4.27432V0.356445H3.22634H16.2852V13.9749H12.1813" stroke="#2B5597" stroke-width="0.71286" stroke-linecap="round" stroke-linejoin="round"/>
<path d="M19.5451 0.356445H16.2852V13.9749H19.6434V0.356445H19.5451Z" stroke="#2B5597" stroke-width="0.71286" stroke-linecap="round" stroke-linejoin="round"/>
<path d="M11.6104 0.356445V3.93358L9.56946 2.7488L7.52783 3.93358V0.356445" stroke="#2B5597" stroke-width="0.71286" stroke-linecap="round" stroke-linejoin="round"/>
<path d="M8.97029 12.792C8.34155 13.0044 7.8397 13.4863 7.60231 14.1065L7.56738 14.1978L9.62612 16.2565C10.0139 16.6443 10.6427 16.6443 11.0305 16.2565C11.4183 15.8687 11.4183 15.24 11.0305 14.8522L8.97029 12.792V12.792Z" stroke="#2B5597" stroke-width="0.71286" stroke-linecap="round" stroke-linejoin="round"/>
<path d="M7.95262 9.57388C8.0808 7.47818 6.48581 5.67538 4.39011 5.5472C2.29442 5.41902 0.491613 7.01401 0.363435 9.10971C0.235257 11.2054 1.83024 13.0082 3.92594 13.1364C6.02163 13.2646 7.82444 11.6696 7.95262 9.57388Z" stroke="#2B5597" stroke-width="0.71286" stroke-linecap="round" stroke-linejoin="round"/>
<path d="M8.14266 13.2935L6.88232 12.0332" stroke="#2B5597" stroke-width="0.71286" stroke-linecap="round" stroke-linejoin="round"/>
</g>
<defs>
<clipPath id="clip0_1169_9336">
<rect width="20" height="16.9041" fill="white"/>
</clipPath>
</defs>
</svg>
