<svg width="17" height="17" viewBox="0 0 17 17" fill="none" xmlns="http://www.w3.org/2000/svg">
<path d="M2.90015 3.50012C4.27497 5.32495 6.02506 5.99995 8.50006 5.99995C10.95 5.99995 12.7251 5.32495 14.1 3.50012" stroke="white" stroke-width="0.775862" stroke-miterlimit="10"/>
<path d="M2.90015 13.4999C4.27497 11.6751 6.02506 11.0001 8.50006 11.0001C10.95 11.0001 12.7251 11.6751 14.1 13.4999" stroke="white" stroke-width="0.775862" stroke-miterlimit="10"/>
<path d="M8.5 16C11.1501 14.725 12.5001 11.8499 12.5001 8.5C12.5001 5.15009 11.1501 2.275 8.5 1" stroke="white" stroke-width="0.775862" stroke-miterlimit="10"/>
<path d="M8.50009 16C5.85 14.725 4.5 11.8499 4.5 8.5C4.5 5.15009 5.85 2.275 8.50009 1" stroke="white" stroke-width="0.775862" stroke-miterlimit="10"/>
<path d="M8.5 16V15.325V1.675V1" stroke="white" stroke-width="0.775862" stroke-miterlimit="10"/>
<path d="M1 8.5H16" stroke="white" stroke-width="0.775862" stroke-miterlimit="10"/>
<path d="M8.5 16C12.6421 16 16 12.6421 16 8.5C16 4.35786 12.6421 1 8.5 1C4.35786 1 1 4.35786 1 8.5C1 12.6421 4.35786 16 8.5 16Z" stroke="white" stroke-width="0.775862" stroke-miterlimit="10" stroke-linecap="square"/>
</svg>
